<?xml version="1.0" encoding="utf-8"?>
<!-- Generator: Adobe Illustrator 22.0.0, SVG Export Plug-In . SVG Version: 6.00 Build 0)  -->
<!DOCTYPE svg PUBLIC "-//W3C//DTD SVG 1.1//EN" "http://www.w3.org/Graphics/SVG/1.1/DTD/svg11.dtd" [
	<!ENTITY st0 "fill:#201600;">
	<!ENTITY st1 "fill:url(#SVGID_1_);">
	<!ENTITY st2 "fill:url(#SVGID_2_);">
	<!ENTITY st3 "fill:url(#SVGID_3_);">
	<!ENTITY st4 "fill:url(#SVGID_4_);">
	<!ENTITY st5 "fill:url(#SVGID_5_);">
	<!ENTITY st6 "fill:url(#SVGID_6_);">
	<!ENTITY st7 "fill:url(#SVGID_7_);">
	<!ENTITY st8 "fill:url(#SVGID_8_);">
	<!ENTITY st9 "fill:url(#SVGID_9_);">
	<!ENTITY st10 "fill:url(#SVGID_10_);">
	<!ENTITY st11 "fill:none;stroke:#4D4D4D;stroke-width:0.5;stroke-miterlimit:10;">
]>
<svg version="1.1" id="Слой_1" xmlns="http://www.w3.org/2000/svg" xmlns:xlink="http://www.w3.org/1999/xlink" x="0px" y="0px"
	 viewBox="0 0 122.243 25.128" style="enable-background:new 0 0 122.243 25.128;" xml:space="preserve">
<g>
	<g>
		<path style="&st0;" d="M2.202,18.273c-0.092-0.099-0.138-0.225-0.138-0.379V2.891c0-0.168,0.046-0.302,0.138-0.402
			C2.294,2.39,2.416,2.34,2.569,2.34h5.813c1.731,0,3.09,0.417,4.078,1.252c0.988,0.835,1.482,2.049,1.482,3.642
			s-0.494,2.803-1.482,3.63c-0.988,0.827-2.347,1.24-4.078,1.24H4.247v5.79c0,0.153-0.05,0.28-0.149,0.379
			c-0.1,0.1-0.226,0.149-0.379,0.149h-1.15C2.416,18.423,2.294,18.373,2.202,18.273z M8.267,10.243c2.313,0,3.469-1.003,3.469-3.01
			c0-0.98-0.287-1.731-0.862-2.252c-0.573-0.519-1.443-0.78-2.607-0.78h-4.02v6.043h4.02V10.243z"/>
		<path style="&st0;" d="M17.492,18.193c-0.636-0.306-1.141-0.724-1.516-1.252s-0.563-1.114-0.563-1.758
			c0-1.011,0.414-1.838,1.241-2.481s1.953-1.072,3.377-1.287l3.446-0.483v-0.666c0-1.577-0.911-2.366-2.734-2.366
			c-0.705,0-1.272,0.142-1.7,0.425c-0.429,0.284-0.743,0.617-0.942,0.999c-0.061,0.153-0.126,0.257-0.195,0.31
			c-0.069,0.054-0.165,0.08-0.287,0.08h-0.896c-0.138,0-0.257-0.05-0.356-0.149c-0.1-0.099-0.149-0.218-0.149-0.356
			c0-0.352,0.164-0.762,0.494-1.229c0.329-0.467,0.839-0.873,1.528-1.218s1.531-0.517,2.527-0.517c1.715,0,2.944,0.399,3.688,1.195
			c0.743,0.797,1.114,1.792,1.114,2.987v7.467c0,0.153-0.05,0.28-0.149,0.379c-0.1,0.1-0.226,0.149-0.379,0.149H24.03
			c-0.153,0-0.276-0.05-0.368-0.149c-0.092-0.099-0.138-0.226-0.138-0.379v-1.011c-0.337,0.505-0.827,0.927-1.47,1.264
			s-1.47,0.505-2.481,0.505C18.82,18.652,18.127,18.499,17.492,18.193z M22.512,15.987c0.643-0.658,0.965-1.616,0.965-2.872v-0.643
			l-2.688,0.391c-1.103,0.153-1.938,0.413-2.504,0.781c-0.567,0.367-0.85,0.827-0.85,1.378c0,0.628,0.256,1.111,0.77,1.447
			c0.513,0.337,1.122,0.505,1.827,0.505C21.041,16.975,21.869,16.646,22.512,15.987z"/>
		<path style="&st0;" d="M29.071,22.65c-0.1-0.092-0.149-0.222-0.149-0.391V7.004c0-0.168,0.05-0.299,0.149-0.391
			s0.226-0.138,0.379-0.138h0.965c0.168,0,0.299,0.046,0.391,0.138c0.092,0.092,0.138,0.222,0.138,0.391v1.011
			c0.888-1.179,2.152-1.769,3.791-1.769c1.608,0,2.814,0.509,3.619,1.528c0.804,1.019,1.229,2.317,1.275,3.894
			c0.015,0.169,0.023,0.429,0.023,0.781c0,0.353-0.008,0.613-0.023,0.781c-0.046,1.562-0.471,2.857-1.275,3.883
			c-0.804,1.026-2.01,1.539-3.619,1.539c-1.639,0-2.88-0.582-3.722-1.746v5.353c0,0.153-0.05,0.279-0.149,0.379
			c-0.1,0.099-0.226,0.149-0.379,0.149h-1.034C29.297,22.788,29.17,22.742,29.071,22.65z M36.71,15.826
			c0.505-0.689,0.781-1.593,0.827-2.711c0.015-0.153,0.023-0.375,0.023-0.666c0-2.941-1.088-4.411-3.262-4.411
			c-1.072,0-1.88,0.356-2.424,1.068c-0.544,0.712-0.831,1.551-0.862,2.516c-0.015,0.169-0.023,0.467-0.023,0.896
			s0.008,0.728,0.023,0.896c0.03,0.934,0.325,1.742,0.885,2.424c0.559,0.682,1.359,1.022,2.401,1.022
			C35.401,16.86,36.205,16.516,36.71,15.826z"/>
		<path style="&st0;" d="M43.534,17.193c-0.934-0.973-1.447-2.301-1.539-3.986l-0.023-0.781l0.023-0.758
			c0.092-1.654,0.605-2.971,1.539-3.952c0.934-0.98,2.183-1.47,3.745-1.47c1.685,0,2.99,0.536,3.917,1.608s1.39,2.527,1.39,4.365
			v0.414c0,0.153-0.05,0.28-0.149,0.379c-0.1,0.1-0.226,0.149-0.379,0.149h-7.972v0.207c0.046,0.996,0.352,1.846,0.919,2.55
			c0.566,0.705,1.317,1.057,2.252,1.057c0.72,0,1.306-0.141,1.758-0.425c0.452-0.283,0.793-0.578,1.022-0.885
			c0.138-0.184,0.245-0.295,0.322-0.333c0.076-0.038,0.207-0.057,0.391-0.057h1.011c0.138,0,0.256,0.038,0.356,0.115
			c0.099,0.077,0.149,0.176,0.149,0.299c0,0.337-0.207,0.743-0.62,1.218c-0.414,0.475-0.999,0.885-1.758,1.229
			c-0.758,0.345-1.628,0.517-2.608,0.517C45.716,18.652,44.468,18.166,43.534,17.193z M50.495,11.599V11.53
			c0-1.072-0.291-1.945-0.873-2.619S48.259,7.9,47.279,7.9c-0.996,0-1.777,0.337-2.343,1.011c-0.567,0.674-0.85,1.547-0.85,2.619
			v0.069H50.495z"/>
		<path style="&st0;" d="M55.538,18.273c-0.1-0.099-0.149-0.226-0.149-0.379V7.027c0-0.153,0.05-0.283,0.149-0.391
			c0.099-0.107,0.226-0.161,0.379-0.161h0.965c0.168,0,0.302,0.05,0.402,0.149c0.099,0.1,0.149,0.234,0.149,0.402v1.011
			c0.628-1.041,1.692-1.562,3.194-1.562h0.896c0.168,0,0.299,0.046,0.39,0.138c0.092,0.092,0.138,0.222,0.138,0.391v0.85
			c0,0.153-0.046,0.28-0.138,0.379c-0.092,0.1-0.222,0.149-0.39,0.149h-1.31c-0.843,0-1.505,0.245-1.987,0.735
			c-0.483,0.49-0.724,1.157-0.724,1.999v6.778c0,0.153-0.054,0.28-0.161,0.379c-0.107,0.1-0.238,0.149-0.391,0.149h-1.034
			C55.764,18.423,55.638,18.373,55.538,18.273z"/>
		<path style="&st0;" d="M65.44,18.135c-0.728-0.345-1.268-0.739-1.62-1.183c-0.353-0.444-0.528-0.812-0.528-1.103
			c0-0.153,0.053-0.272,0.161-0.356c0.107-0.084,0.222-0.126,0.345-0.126h0.965c0.092,0,0.164,0.015,0.218,0.046
			c0.053,0.031,0.126,0.1,0.218,0.207c0.352,0.429,0.747,0.766,1.183,1.011c0.437,0.245,1.022,0.368,1.758,0.368
			c0.827,0,1.489-0.153,1.987-0.459s0.747-0.75,0.747-1.333c0-0.383-0.107-0.689-0.322-0.919s-0.571-0.436-1.068-0.62
			c-0.498-0.184-1.237-0.383-2.217-0.597c-1.333-0.291-2.274-0.712-2.826-1.264c-0.551-0.551-0.827-1.264-0.827-2.137
			c0-0.566,0.168-1.114,0.505-1.643c0.337-0.528,0.839-0.957,1.505-1.287c0.666-0.329,1.459-0.494,2.378-0.494
			c0.965,0,1.788,0.161,2.47,0.483c0.681,0.322,1.195,0.697,1.539,1.126c0.345,0.429,0.517,0.789,0.517,1.08
			c0,0.138-0.05,0.253-0.149,0.345c-0.1,0.092-0.218,0.138-0.356,0.138H71.15c-0.215,0-0.368-0.084-0.46-0.253
			c-0.261-0.291-0.479-0.517-0.655-0.678c-0.176-0.161-0.433-0.299-0.77-0.414c-0.337-0.115-0.758-0.172-1.264-0.172
			c-0.751,0-1.325,0.157-1.723,0.471s-0.597,0.732-0.597,1.252c0,0.322,0.084,0.594,0.253,0.816c0.168,0.222,0.49,0.429,0.965,0.62
			c0.475,0.192,1.179,0.387,2.114,0.586c1.455,0.307,2.485,0.743,3.09,1.31c0.605,0.567,0.908,1.294,0.908,2.183
			c0,0.659-0.188,1.256-0.563,1.792s-0.934,0.957-1.677,1.264c-0.743,0.306-1.628,0.46-2.654,0.46
			C67.06,18.652,66.167,18.48,65.44,18.135z"/>
		<path style="&st0;" d="M76.64,17.262c-0.919-0.926-1.401-2.225-1.447-3.894l-0.023-0.919l0.023-0.919
			c0.046-1.669,0.528-2.967,1.447-3.894s2.198-1.39,3.837-1.39c1.103,0,2.033,0.195,2.791,0.586s1.325,0.877,1.7,1.459
			s0.578,1.164,0.609,1.746c0.015,0.138-0.034,0.261-0.149,0.368c-0.115,0.107-0.241,0.161-0.379,0.161h-1.011
			c-0.153,0-0.268-0.034-0.345-0.103c-0.077-0.069-0.153-0.195-0.23-0.379c-0.276-0.75-0.655-1.283-1.137-1.597
			c-0.483-0.314-1.091-0.471-1.827-0.471c-0.965,0-1.731,0.299-2.298,0.896c-0.567,0.597-0.873,1.509-0.919,2.734l-0.023,0.804
			l0.023,0.804c0.046,1.226,0.352,2.137,0.919,2.734c0.567,0.597,1.333,0.896,2.298,0.896c0.75,0,1.363-0.157,1.838-0.471
			c0.475-0.314,0.85-0.846,1.126-1.597c0.076-0.184,0.153-0.31,0.23-0.379c0.076-0.069,0.191-0.103,0.345-0.103h1.011
			c0.138,0,0.264,0.054,0.379,0.161s0.164,0.23,0.149,0.368c-0.031,0.567-0.234,1.141-0.609,1.723s-0.942,1.072-1.7,1.47
			c-0.758,0.398-1.689,0.597-2.791,0.597C78.838,18.652,77.559,18.189,76.64,17.262z"/>
		<path style="&st0;" d="M88.484,18.273c-0.1-0.099-0.149-0.226-0.149-0.379V7.027c0-0.153,0.05-0.283,0.149-0.391
			c0.1-0.107,0.226-0.161,0.379-0.161h0.965c0.168,0,0.302,0.05,0.402,0.149c0.099,0.1,0.149,0.234,0.149,0.402v1.011
			c0.628-1.041,1.692-1.562,3.193-1.562h0.896c0.168,0,0.299,0.046,0.391,0.138c0.092,0.092,0.138,0.222,0.138,0.391v0.85
			c0,0.153-0.046,0.28-0.138,0.379c-0.092,0.1-0.222,0.149-0.391,0.149h-1.31c-0.843,0-1.505,0.245-1.987,0.735
			c-0.483,0.49-0.724,1.157-0.724,1.999v6.778c0,0.153-0.054,0.28-0.161,0.379c-0.107,0.1-0.238,0.149-0.391,0.149h-1.034
			C88.71,18.423,88.583,18.373,88.484,18.273z"/>
		<path style="&st0;" d="M98.019,18.193c-0.636-0.306-1.141-0.724-1.516-1.252s-0.563-1.114-0.563-1.758
			c0-1.011,0.414-1.838,1.241-2.481c0.827-0.643,1.953-1.072,3.377-1.287l3.446-0.483v-0.666c0-1.577-0.911-2.366-2.734-2.366
			c-0.705,0-1.272,0.142-1.7,0.425c-0.429,0.284-0.743,0.617-0.942,0.999c-0.061,0.153-0.126,0.257-0.195,0.31
			c-0.069,0.054-0.165,0.08-0.287,0.08H97.25c-0.138,0-0.257-0.05-0.356-0.149c-0.1-0.099-0.149-0.218-0.149-0.356
			c0-0.352,0.164-0.762,0.494-1.229c0.329-0.467,0.839-0.873,1.528-1.218s1.532-0.517,2.527-0.517c1.715,0,2.944,0.399,3.687,1.195
			c0.743,0.797,1.114,1.792,1.114,2.987v7.467c0,0.153-0.05,0.28-0.149,0.379c-0.1,0.1-0.226,0.149-0.379,0.149h-1.011
			c-0.153,0-0.276-0.05-0.368-0.149c-0.092-0.099-0.138-0.226-0.138-0.379v-1.011c-0.337,0.505-0.827,0.927-1.47,1.264
			s-1.471,0.505-2.481,0.505C99.347,18.652,98.654,18.499,98.019,18.193z M103.039,15.987c0.643-0.658,0.965-1.616,0.965-2.872
			v-0.643l-2.688,0.391c-1.103,0.153-1.938,0.413-2.504,0.781c-0.567,0.367-0.85,0.827-0.85,1.378c0,0.628,0.256,1.111,0.77,1.447
			c0.513,0.337,1.122,0.505,1.827,0.505C101.568,16.975,102.395,16.646,103.039,15.987z"/>
		<path style="&st0;" d="M109.598,22.65c-0.1-0.092-0.149-0.222-0.149-0.391V7.004c0-0.168,0.05-0.299,0.149-0.391
			s0.226-0.138,0.379-0.138h0.965c0.168,0,0.299,0.046,0.391,0.138c0.092,0.092,0.138,0.222,0.138,0.391v1.011
			c0.888-1.179,2.152-1.769,3.791-1.769c1.608,0,2.814,0.509,3.619,1.528c0.804,1.019,1.229,2.317,1.275,3.894
			c0.015,0.169,0.023,0.429,0.023,0.781c0,0.353-0.008,0.613-0.023,0.781c-0.046,1.562-0.471,2.857-1.275,3.883
			c-0.804,1.026-2.01,1.539-3.619,1.539c-1.639,0-2.88-0.582-3.722-1.746v5.353c0,0.153-0.05,0.279-0.149,0.379
			c-0.1,0.099-0.226,0.149-0.379,0.149h-1.034C109.824,22.788,109.697,22.742,109.598,22.65z M117.237,15.826
			c0.505-0.689,0.781-1.593,0.827-2.711c0.015-0.153,0.023-0.375,0.023-0.666c0-2.941-1.088-4.411-3.262-4.411
			c-1.072,0-1.88,0.356-2.424,1.068c-0.544,0.712-0.831,1.551-0.862,2.516c-0.015,0.169-0.023,0.467-0.023,0.896
			s0.008,0.728,0.023,0.896c0.031,0.934,0.325,1.742,0.885,2.424c0.559,0.682,1.359,1.022,2.401,1.022
			C115.927,16.86,116.732,16.516,117.237,15.826z"/>
	</g>
	<g>
		<path style="&st0;" d="M2.202,18.273c-0.092-0.099-0.138-0.225-0.138-0.379V2.891c0-0.168,0.046-0.302,0.138-0.402
			C2.294,2.39,2.416,2.34,2.569,2.34h5.813c1.731,0,3.09,0.417,4.078,1.252c0.988,0.835,1.482,2.049,1.482,3.642
			s-0.494,2.803-1.482,3.63c-0.988,0.827-2.347,1.24-4.078,1.24H4.247v5.79c0,0.153-0.05,0.28-0.149,0.379
			c-0.1,0.1-0.226,0.149-0.379,0.149h-1.15C2.416,18.423,2.294,18.373,2.202,18.273z M8.267,10.243c2.313,0,3.469-1.003,3.469-3.01
			c0-0.98-0.287-1.731-0.862-2.252c-0.573-0.519-1.443-0.78-2.607-0.78h-4.02v6.043h4.02V10.243z"/>
		<path style="&st0;" d="M17.492,18.193c-0.636-0.306-1.141-0.724-1.516-1.252s-0.563-1.114-0.563-1.758
			c0-1.011,0.414-1.838,1.241-2.481s1.953-1.072,3.377-1.287l3.446-0.483v-0.666c0-1.577-0.911-2.366-2.734-2.366
			c-0.705,0-1.272,0.142-1.7,0.425c-0.429,0.284-0.743,0.617-0.942,0.999c-0.061,0.153-0.126,0.257-0.195,0.31
			c-0.069,0.054-0.165,0.08-0.287,0.08h-0.896c-0.138,0-0.257-0.05-0.356-0.149c-0.1-0.099-0.149-0.218-0.149-0.356
			c0-0.352,0.164-0.762,0.494-1.229c0.329-0.467,0.839-0.873,1.528-1.218s1.531-0.517,2.527-0.517c1.715,0,2.944,0.399,3.688,1.195
			c0.743,0.797,1.114,1.792,1.114,2.987v7.467c0,0.153-0.05,0.28-0.149,0.379c-0.1,0.1-0.226,0.149-0.379,0.149H24.03
			c-0.153,0-0.276-0.05-0.368-0.149c-0.092-0.099-0.138-0.226-0.138-0.379v-1.011c-0.337,0.505-0.827,0.927-1.47,1.264
			s-1.47,0.505-2.481,0.505C18.82,18.652,18.127,18.499,17.492,18.193z M22.512,15.987c0.643-0.658,0.965-1.616,0.965-2.872v-0.643
			l-2.688,0.391c-1.103,0.153-1.938,0.413-2.504,0.781c-0.567,0.367-0.85,0.827-0.85,1.378c0,0.628,0.256,1.111,0.77,1.447
			c0.513,0.337,1.122,0.505,1.827,0.505C21.041,16.975,21.869,16.646,22.512,15.987z"/>
		<path style="&st0;" d="M29.071,22.65c-0.1-0.092-0.149-0.222-0.149-0.391V7.004c0-0.168,0.05-0.299,0.149-0.391
			s0.226-0.138,0.379-0.138h0.965c0.168,0,0.299,0.046,0.391,0.138c0.092,0.092,0.138,0.222,0.138,0.391v1.011
			c0.888-1.179,2.152-1.769,3.791-1.769c1.608,0,2.814,0.509,3.619,1.528c0.804,1.019,1.229,2.317,1.275,3.894
			c0.015,0.169,0.023,0.429,0.023,0.781c0,0.353-0.008,0.613-0.023,0.781c-0.046,1.562-0.471,2.857-1.275,3.883
			c-0.804,1.026-2.01,1.539-3.619,1.539c-1.639,0-2.88-0.582-3.722-1.746v5.353c0,0.153-0.05,0.279-0.149,0.379
			c-0.1,0.099-0.226,0.149-0.379,0.149h-1.034C29.297,22.788,29.17,22.742,29.071,22.65z M36.71,15.826
			c0.505-0.689,0.781-1.593,0.827-2.711c0.015-0.153,0.023-0.375,0.023-0.666c0-2.941-1.088-4.411-3.262-4.411
			c-1.072,0-1.88,0.356-2.424,1.068c-0.544,0.712-0.831,1.551-0.862,2.516c-0.015,0.169-0.023,0.467-0.023,0.896
			s0.008,0.728,0.023,0.896c0.03,0.934,0.325,1.742,0.885,2.424c0.559,0.682,1.359,1.022,2.401,1.022
			C35.401,16.86,36.205,16.516,36.71,15.826z"/>
		<path style="&st0;" d="M43.534,17.193c-0.934-0.973-1.447-2.301-1.539-3.986l-0.023-0.781l0.023-0.758
			c0.092-1.654,0.605-2.971,1.539-3.952c0.934-0.98,2.183-1.47,3.745-1.47c1.685,0,2.99,0.536,3.917,1.608s1.39,2.527,1.39,4.365
			v0.414c0,0.153-0.05,0.28-0.149,0.379c-0.1,0.1-0.226,0.149-0.379,0.149h-7.972v0.207c0.046,0.996,0.352,1.846,0.919,2.55
			c0.566,0.705,1.317,1.057,2.252,1.057c0.72,0,1.306-0.141,1.758-0.425c0.452-0.283,0.793-0.578,1.022-0.885
			c0.138-0.184,0.245-0.295,0.322-0.333c0.076-0.038,0.207-0.057,0.391-0.057h1.011c0.138,0,0.256,0.038,0.356,0.115
			c0.099,0.077,0.149,0.176,0.149,0.299c0,0.337-0.207,0.743-0.62,1.218c-0.414,0.475-0.999,0.885-1.758,1.229
			c-0.758,0.345-1.628,0.517-2.608,0.517C45.716,18.652,44.468,18.166,43.534,17.193z M50.495,11.599V11.53
			c0-1.072-0.291-1.945-0.873-2.619S48.259,7.9,47.279,7.9c-0.996,0-1.777,0.337-2.343,1.011c-0.567,0.674-0.85,1.547-0.85,2.619
			v0.069H50.495z"/>
		<path style="&st0;" d="M55.538,18.273c-0.1-0.099-0.149-0.226-0.149-0.379V7.027c0-0.153,0.05-0.283,0.149-0.391
			c0.099-0.107,0.226-0.161,0.379-0.161h0.965c0.168,0,0.302,0.05,0.402,0.149c0.099,0.1,0.149,0.234,0.149,0.402v1.011
			c0.628-1.041,1.692-1.562,3.194-1.562h0.896c0.168,0,0.299,0.046,0.39,0.138c0.092,0.092,0.138,0.222,0.138,0.391v0.85
			c0,0.153-0.046,0.28-0.138,0.379c-0.092,0.1-0.222,0.149-0.39,0.149h-1.31c-0.843,0-1.505,0.245-1.987,0.735
			c-0.483,0.49-0.724,1.157-0.724,1.999v6.778c0,0.153-0.054,0.28-0.161,0.379c-0.107,0.1-0.238,0.149-0.391,0.149h-1.034
			C55.764,18.423,55.638,18.373,55.538,18.273z"/>
		<path style="&st0;" d="M65.44,18.135c-0.728-0.345-1.268-0.739-1.62-1.183c-0.353-0.444-0.528-0.812-0.528-1.103
			c0-0.153,0.053-0.272,0.161-0.356c0.107-0.084,0.222-0.126,0.345-0.126h0.965c0.092,0,0.164,0.015,0.218,0.046
			c0.053,0.031,0.126,0.1,0.218,0.207c0.352,0.429,0.747,0.766,1.183,1.011c0.437,0.245,1.022,0.368,1.758,0.368
			c0.827,0,1.489-0.153,1.987-0.459s0.747-0.75,0.747-1.333c0-0.383-0.107-0.689-0.322-0.919s-0.571-0.436-1.068-0.62
			c-0.498-0.184-1.237-0.383-2.217-0.597c-1.333-0.291-2.274-0.712-2.826-1.264c-0.551-0.551-0.827-1.264-0.827-2.137
			c0-0.566,0.168-1.114,0.505-1.643c0.337-0.528,0.839-0.957,1.505-1.287c0.666-0.329,1.459-0.494,2.378-0.494
			c0.965,0,1.788,0.161,2.47,0.483c0.681,0.322,1.195,0.697,1.539,1.126c0.345,0.429,0.517,0.789,0.517,1.08
			c0,0.138-0.05,0.253-0.149,0.345c-0.1,0.092-0.218,0.138-0.356,0.138H71.15c-0.215,0-0.368-0.084-0.46-0.253
			c-0.261-0.291-0.479-0.517-0.655-0.678c-0.176-0.161-0.433-0.299-0.77-0.414c-0.337-0.115-0.758-0.172-1.264-0.172
			c-0.751,0-1.325,0.157-1.723,0.471s-0.597,0.732-0.597,1.252c0,0.322,0.084,0.594,0.253,0.816c0.168,0.222,0.49,0.429,0.965,0.62
			c0.475,0.192,1.179,0.387,2.114,0.586c1.455,0.307,2.485,0.743,3.09,1.31c0.605,0.567,0.908,1.294,0.908,2.183
			c0,0.659-0.188,1.256-0.563,1.792s-0.934,0.957-1.677,1.264c-0.743,0.306-1.628,0.46-2.654,0.46
			C67.06,18.652,66.167,18.48,65.44,18.135z"/>
		<path style="&st0;" d="M76.64,17.262c-0.919-0.926-1.401-2.225-1.447-3.894l-0.023-0.919l0.023-0.919
			c0.046-1.669,0.528-2.967,1.447-3.894s2.198-1.39,3.837-1.39c1.103,0,2.033,0.195,2.791,0.586s1.325,0.877,1.7,1.459
			s0.578,1.164,0.609,1.746c0.015,0.138-0.034,0.261-0.149,0.368c-0.115,0.107-0.241,0.161-0.379,0.161h-1.011
			c-0.153,0-0.268-0.034-0.345-0.103c-0.077-0.069-0.153-0.195-0.23-0.379c-0.276-0.75-0.655-1.283-1.137-1.597
			c-0.483-0.314-1.091-0.471-1.827-0.471c-0.965,0-1.731,0.299-2.298,0.896c-0.567,0.597-0.873,1.509-0.919,2.734l-0.023,0.804
			l0.023,0.804c0.046,1.226,0.352,2.137,0.919,2.734c0.567,0.597,1.333,0.896,2.298,0.896c0.75,0,1.363-0.157,1.838-0.471
			c0.475-0.314,0.85-0.846,1.126-1.597c0.076-0.184,0.153-0.31,0.23-0.379c0.076-0.069,0.191-0.103,0.345-0.103h1.011
			c0.138,0,0.264,0.054,0.379,0.161s0.164,0.23,0.149,0.368c-0.031,0.567-0.234,1.141-0.609,1.723s-0.942,1.072-1.7,1.47
			c-0.758,0.398-1.689,0.597-2.791,0.597C78.838,18.652,77.559,18.189,76.64,17.262z"/>
		<path style="&st0;" d="M88.484,18.273c-0.1-0.099-0.149-0.226-0.149-0.379V7.027c0-0.153,0.05-0.283,0.149-0.391
			c0.1-0.107,0.226-0.161,0.379-0.161h0.965c0.168,0,0.302,0.05,0.402,0.149c0.099,0.1,0.149,0.234,0.149,0.402v1.011
			c0.628-1.041,1.692-1.562,3.193-1.562h0.896c0.168,0,0.299,0.046,0.391,0.138c0.092,0.092,0.138,0.222,0.138,0.391v0.85
			c0,0.153-0.046,0.28-0.138,0.379c-0.092,0.1-0.222,0.149-0.391,0.149h-1.31c-0.843,0-1.505,0.245-1.987,0.735
			c-0.483,0.49-0.724,1.157-0.724,1.999v6.778c0,0.153-0.054,0.28-0.161,0.379c-0.107,0.1-0.238,0.149-0.391,0.149h-1.034
			C88.71,18.423,88.583,18.373,88.484,18.273z"/>
		<path style="&st0;" d="M98.019,18.193c-0.636-0.306-1.141-0.724-1.516-1.252s-0.563-1.114-0.563-1.758
			c0-1.011,0.414-1.838,1.241-2.481c0.827-0.643,1.953-1.072,3.377-1.287l3.446-0.483v-0.666c0-1.577-0.911-2.366-2.734-2.366
			c-0.705,0-1.272,0.142-1.7,0.425c-0.429,0.284-0.743,0.617-0.942,0.999c-0.061,0.153-0.126,0.257-0.195,0.31
			c-0.069,0.054-0.165,0.08-0.287,0.08H97.25c-0.138,0-0.257-0.05-0.356-0.149c-0.1-0.099-0.149-0.218-0.149-0.356
			c0-0.352,0.164-0.762,0.494-1.229c0.329-0.467,0.839-0.873,1.528-1.218s1.532-0.517,2.527-0.517c1.715,0,2.944,0.399,3.687,1.195
			c0.743,0.797,1.114,1.792,1.114,2.987v7.467c0,0.153-0.05,0.28-0.149,0.379c-0.1,0.1-0.226,0.149-0.379,0.149h-1.011
			c-0.153,0-0.276-0.05-0.368-0.149c-0.092-0.099-0.138-0.226-0.138-0.379v-1.011c-0.337,0.505-0.827,0.927-1.47,1.264
			s-1.471,0.505-2.481,0.505C99.347,18.652,98.654,18.499,98.019,18.193z M103.039,15.987c0.643-0.658,0.965-1.616,0.965-2.872
			v-0.643l-2.688,0.391c-1.103,0.153-1.938,0.413-2.504,0.781c-0.567,0.367-0.85,0.827-0.85,1.378c0,0.628,0.256,1.111,0.77,1.447
			c0.513,0.337,1.122,0.505,1.827,0.505C101.568,16.975,102.395,16.646,103.039,15.987z"/>
		<path style="&st0;" d="M109.598,22.65c-0.1-0.092-0.149-0.222-0.149-0.391V7.004c0-0.168,0.05-0.299,0.149-0.391
			s0.226-0.138,0.379-0.138h0.965c0.168,0,0.299,0.046,0.391,0.138c0.092,0.092,0.138,0.222,0.138,0.391v1.011
			c0.888-1.179,2.152-1.769,3.791-1.769c1.608,0,2.814,0.509,3.619,1.528c0.804,1.019,1.229,2.317,1.275,3.894
			c0.015,0.169,0.023,0.429,0.023,0.781c0,0.353-0.008,0.613-0.023,0.781c-0.046,1.562-0.471,2.857-1.275,3.883
			c-0.804,1.026-2.01,1.539-3.619,1.539c-1.639,0-2.88-0.582-3.722-1.746v5.353c0,0.153-0.05,0.279-0.149,0.379
			c-0.1,0.099-0.226,0.149-0.379,0.149h-1.034C109.824,22.788,109.697,22.742,109.598,22.65z M117.237,15.826
			c0.505-0.689,0.781-1.593,0.827-2.711c0.015-0.153,0.023-0.375,0.023-0.666c0-2.941-1.088-4.411-3.262-4.411
			c-1.072,0-1.88,0.356-2.424,1.068c-0.544,0.712-0.831,1.551-0.862,2.516c-0.015,0.169-0.023,0.467-0.023,0.896
			s0.008,0.728,0.023,0.896c0.031,0.934,0.325,1.742,0.885,2.424c0.559,0.682,1.359,1.022,2.401,1.022
			C115.927,16.86,116.732,16.516,117.237,15.826z"/>
	</g>
	<g>
		
			<linearGradient id="SVGID_1_" gradientUnits="userSpaceOnUse" x1="2.064" y1="47.7476" x2="120.1779" y2="47.7476" gradientTransform="matrix(1 0 0 1 0 -37.3661)">
			<stop  offset="0" style="stop-color:#D94C4C"/>
			<stop  offset="0.3" style="stop-color:#F0C256"/>
			<stop  offset="0.5" style="stop-color:#21A661"/>
			<stop  offset="0.7" style="stop-color:#0A9BB8"/>
			<stop  offset="1" style="stop-color:#9542A6"/>
		</linearGradient>
		<path style="&st1;" d="M2.202,18.273c-0.092-0.099-0.138-0.225-0.138-0.379V2.891c0-0.168,0.046-0.302,0.138-0.402
			C2.294,2.39,2.416,2.34,2.569,2.34h5.813c1.731,0,3.09,0.417,4.078,1.252c0.988,0.835,1.482,2.049,1.482,3.642
			s-0.494,2.803-1.482,3.63c-0.988,0.827-2.347,1.24-4.078,1.24H4.247v5.79c0,0.153-0.05,0.28-0.149,0.379
			c-0.1,0.1-0.226,0.149-0.379,0.149h-1.15C2.416,18.423,2.294,18.373,2.202,18.273z M8.267,10.243c2.313,0,3.469-1.003,3.469-3.01
			c0-0.98-0.287-1.731-0.862-2.252c-0.573-0.519-1.443-0.78-2.607-0.78h-4.02v6.043h4.02V10.243z"/>
		
			<linearGradient id="SVGID_2_" gradientUnits="userSpaceOnUse" x1="2.0644" y1="49.8151" x2="120.1783" y2="49.8151" gradientTransform="matrix(1 0 0 1 0 -37.3661)">
			<stop  offset="0" style="stop-color:#D94C4C"/>
			<stop  offset="0.3" style="stop-color:#F0C256"/>
			<stop  offset="0.5" style="stop-color:#21A661"/>
			<stop  offset="0.7" style="stop-color:#0A9BB8"/>
			<stop  offset="1" style="stop-color:#9542A6"/>
		</linearGradient>
		<path style="&st2;" d="M17.492,18.193c-0.636-0.306-1.141-0.724-1.516-1.252s-0.563-1.114-0.563-1.758
			c0-1.011,0.414-1.838,1.241-2.481s1.953-1.072,3.377-1.287l3.446-0.483v-0.666c0-1.577-0.911-2.366-2.734-2.366
			c-0.705,0-1.272,0.142-1.7,0.425c-0.429,0.284-0.743,0.617-0.942,0.999c-0.061,0.153-0.126,0.257-0.195,0.31
			c-0.069,0.054-0.165,0.08-0.287,0.08h-0.896c-0.138,0-0.257-0.05-0.356-0.149c-0.1-0.099-0.149-0.218-0.149-0.356
			c0-0.352,0.164-0.762,0.494-1.229c0.329-0.467,0.839-0.873,1.528-1.218s1.531-0.517,2.527-0.517c1.715,0,2.944,0.399,3.688,1.195
			c0.743,0.797,1.114,1.792,1.114,2.987v7.467c0,0.153-0.05,0.28-0.149,0.379c-0.1,0.1-0.226,0.149-0.379,0.149H24.03
			c-0.153,0-0.276-0.05-0.368-0.149c-0.092-0.099-0.138-0.226-0.138-0.379v-1.011c-0.337,0.505-0.827,0.927-1.47,1.264
			s-1.47,0.505-2.481,0.505C18.82,18.652,18.127,18.499,17.492,18.193z M22.512,15.987c0.643-0.658,0.965-1.616,0.965-2.872v-0.643
			l-2.688,0.391c-1.103,0.153-1.938,0.413-2.504,0.781c-0.567,0.367-0.85,0.827-0.85,1.378c0,0.628,0.256,1.111,0.77,1.447
			c0.513,0.337,1.122,0.505,1.827,0.505C21.041,16.975,21.869,16.646,22.512,15.987z"/>
		
			<linearGradient id="SVGID_3_" gradientUnits="userSpaceOnUse" x1="2.0644" y1="51.8831" x2="120.1783" y2="51.8831" gradientTransform="matrix(1 0 0 1 0 -37.3661)">
			<stop  offset="0" style="stop-color:#D94C4C"/>
			<stop  offset="0.3" style="stop-color:#F0C256"/>
			<stop  offset="0.5" style="stop-color:#21A661"/>
			<stop  offset="0.7" style="stop-color:#0A9BB8"/>
			<stop  offset="1" style="stop-color:#9542A6"/>
		</linearGradient>
		<path style="&st3;" d="M29.071,22.65c-0.1-0.092-0.149-0.222-0.149-0.391V7.004c0-0.168,0.05-0.299,0.149-0.391
			s0.226-0.138,0.379-0.138h0.965c0.168,0,0.299,0.046,0.391,0.138c0.092,0.092,0.138,0.222,0.138,0.391v1.011
			c0.888-1.179,2.152-1.769,3.791-1.769c1.608,0,2.814,0.509,3.619,1.528c0.804,1.019,1.229,2.317,1.275,3.894
			c0.015,0.169,0.023,0.429,0.023,0.781c0,0.353-0.008,0.613-0.023,0.781c-0.046,1.562-0.471,2.857-1.275,3.883
			c-0.804,1.026-2.01,1.539-3.619,1.539c-1.639,0-2.88-0.582-3.722-1.746v5.353c0,0.153-0.05,0.279-0.149,0.379
			c-0.1,0.099-0.226,0.149-0.379,0.149h-1.034C29.297,22.788,29.17,22.742,29.071,22.65z M36.71,15.826
			c0.505-0.689,0.781-1.593,0.827-2.711c0.015-0.153,0.023-0.375,0.023-0.666c0-2.941-1.088-4.411-3.262-4.411
			c-1.072,0-1.88,0.356-2.424,1.068c-0.544,0.712-0.831,1.551-0.862,2.516c-0.015,0.169-0.023,0.467-0.023,0.896
			s0.008,0.728,0.023,0.896c0.03,0.934,0.325,1.742,0.885,2.424c0.559,0.682,1.359,1.022,2.401,1.022
			C35.401,16.86,36.205,16.516,36.71,15.826z"/>
		
			<linearGradient id="SVGID_4_" gradientUnits="userSpaceOnUse" x1="2.0644" y1="49.8161" x2="120.1783" y2="49.8161" gradientTransform="matrix(1 0 0 1 0 -37.3661)">
			<stop  offset="0" style="stop-color:#D94C4C"/>
			<stop  offset="0.3" style="stop-color:#F0C256"/>
			<stop  offset="0.5" style="stop-color:#21A661"/>
			<stop  offset="0.7" style="stop-color:#0A9BB8"/>
			<stop  offset="1" style="stop-color:#9542A6"/>
		</linearGradient>
		<path style="&st4;" d="M43.534,17.193c-0.934-0.973-1.447-2.301-1.539-3.986l-0.023-0.781l0.023-0.758
			c0.092-1.654,0.605-2.971,1.539-3.952c0.934-0.98,2.183-1.47,3.745-1.47c1.685,0,2.99,0.536,3.917,1.608s1.39,2.527,1.39,4.365
			v0.414c0,0.153-0.05,0.28-0.149,0.379c-0.1,0.1-0.226,0.149-0.379,0.149h-7.972v0.207c0.046,0.996,0.352,1.846,0.919,2.55
			c0.566,0.705,1.317,1.057,2.252,1.057c0.72,0,1.306-0.141,1.758-0.425c0.452-0.283,0.793-0.578,1.022-0.885
			c0.138-0.184,0.245-0.295,0.322-0.333c0.076-0.038,0.207-0.057,0.391-0.057h1.011c0.138,0,0.256,0.038,0.356,0.115
			c0.099,0.077,0.149,0.176,0.149,0.299c0,0.337-0.207,0.743-0.62,1.218c-0.414,0.475-0.999,0.885-1.758,1.229
			c-0.758,0.345-1.628,0.517-2.608,0.517C45.716,18.652,44.468,18.166,43.534,17.193z M50.495,11.599V11.53
			c0-1.072-0.291-1.945-0.873-2.619S48.259,7.9,47.279,7.9c-0.996,0-1.777,0.337-2.343,1.011c-0.567,0.674-0.85,1.547-0.85,2.619
			v0.069H50.495z"/>
		
			<linearGradient id="SVGID_5_" gradientUnits="userSpaceOnUse" x1="2.0644" y1="49.8151" x2="120.1783" y2="49.8151" gradientTransform="matrix(1 0 0 1 0 -37.3661)">
			<stop  offset="0" style="stop-color:#D94C4C"/>
			<stop  offset="0.3" style="stop-color:#F0C256"/>
			<stop  offset="0.5" style="stop-color:#21A661"/>
			<stop  offset="0.7" style="stop-color:#0A9BB8"/>
			<stop  offset="1" style="stop-color:#9542A6"/>
		</linearGradient>
		<path style="&st5;" d="M55.538,18.273c-0.1-0.099-0.149-0.226-0.149-0.379V7.027c0-0.153,0.05-0.283,0.149-0.391
			c0.099-0.107,0.226-0.161,0.379-0.161h0.965c0.168,0,0.302,0.05,0.402,0.149c0.099,0.1,0.149,0.234,0.149,0.402v1.011
			c0.628-1.041,1.692-1.562,3.194-1.562h0.896c0.168,0,0.299,0.046,0.39,0.138c0.092,0.092,0.138,0.222,0.138,0.391v0.85
			c0,0.153-0.046,0.28-0.138,0.379c-0.092,0.1-0.222,0.149-0.39,0.149h-1.31c-0.843,0-1.505,0.245-1.987,0.735
			c-0.483,0.49-0.724,1.157-0.724,1.999v6.778c0,0.153-0.054,0.28-0.161,0.379c-0.107,0.1-0.238,0.149-0.391,0.149h-1.034
			C55.764,18.423,55.638,18.373,55.538,18.273z"/>
		
			<linearGradient id="SVGID_6_" gradientUnits="userSpaceOnUse" x1="2.0644" y1="49.8171" x2="120.1783" y2="49.8171" gradientTransform="matrix(1 0 0 1 0 -37.3661)">
			<stop  offset="0" style="stop-color:#D94C4C"/>
			<stop  offset="0.3" style="stop-color:#F0C256"/>
			<stop  offset="0.5" style="stop-color:#21A661"/>
			<stop  offset="0.7" style="stop-color:#0A9BB8"/>
			<stop  offset="1" style="stop-color:#9542A6"/>
		</linearGradient>
		<path style="&st6;" d="M65.44,18.135c-0.728-0.345-1.268-0.739-1.62-1.183c-0.353-0.444-0.528-0.812-0.528-1.103
			c0-0.153,0.053-0.272,0.161-0.356c0.107-0.084,0.222-0.126,0.345-0.126h0.965c0.092,0,0.164,0.015,0.218,0.046
			c0.053,0.031,0.126,0.1,0.218,0.207c0.352,0.429,0.747,0.766,1.183,1.011c0.437,0.245,1.022,0.368,1.758,0.368
			c0.827,0,1.489-0.153,1.987-0.459s0.747-0.75,0.747-1.333c0-0.383-0.107-0.689-0.322-0.919s-0.571-0.436-1.068-0.62
			c-0.498-0.184-1.237-0.383-2.217-0.597c-1.333-0.291-2.274-0.712-2.826-1.264c-0.551-0.551-0.827-1.264-0.827-2.137
			c0-0.566,0.168-1.114,0.505-1.643c0.337-0.528,0.839-0.957,1.505-1.287c0.666-0.329,1.459-0.494,2.378-0.494
			c0.965,0,1.788,0.161,2.47,0.483c0.681,0.322,1.195,0.697,1.539,1.126c0.345,0.429,0.517,0.789,0.517,1.08
			c0,0.138-0.05,0.253-0.149,0.345c-0.1,0.092-0.218,0.138-0.356,0.138H71.15c-0.215,0-0.368-0.084-0.46-0.253
			c-0.261-0.291-0.479-0.517-0.655-0.678c-0.176-0.161-0.433-0.299-0.77-0.414c-0.337-0.115-0.758-0.172-1.264-0.172
			c-0.751,0-1.325,0.157-1.723,0.471s-0.597,0.732-0.597,1.252c0,0.322,0.084,0.594,0.253,0.816c0.168,0.222,0.49,0.429,0.965,0.62
			c0.475,0.192,1.179,0.387,2.114,0.586c1.455,0.307,2.485,0.743,3.09,1.31c0.605,0.567,0.908,1.294,0.908,2.183
			c0,0.659-0.188,1.256-0.563,1.792s-0.934,0.957-1.677,1.264c-0.743,0.306-1.628,0.46-2.654,0.46
			C67.06,18.652,66.167,18.48,65.44,18.135z"/>
		
			<linearGradient id="SVGID_7_" gradientUnits="userSpaceOnUse" x1="2.0644" y1="49.8161" x2="120.1783" y2="49.8161" gradientTransform="matrix(1 0 0 1 0 -37.3661)">
			<stop  offset="0" style="stop-color:#D94C4C"/>
			<stop  offset="0.3" style="stop-color:#F0C256"/>
			<stop  offset="0.5" style="stop-color:#21A661"/>
			<stop  offset="0.7" style="stop-color:#0A9BB8"/>
			<stop  offset="1" style="stop-color:#9542A6"/>
		</linearGradient>
		<path style="&st7;" d="M76.64,17.262c-0.919-0.926-1.401-2.225-1.447-3.894l-0.023-0.919l0.023-0.919
			c0.046-1.669,0.528-2.967,1.447-3.894s2.198-1.39,3.837-1.39c1.103,0,2.033,0.195,2.791,0.586s1.325,0.877,1.7,1.459
			s0.578,1.164,0.609,1.746c0.015,0.138-0.034,0.261-0.149,0.368c-0.115,0.107-0.241,0.161-0.379,0.161h-1.011
			c-0.153,0-0.268-0.034-0.345-0.103c-0.077-0.069-0.153-0.195-0.23-0.379c-0.276-0.75-0.655-1.283-1.137-1.597
			c-0.483-0.314-1.091-0.471-1.827-0.471c-0.965,0-1.731,0.299-2.298,0.896c-0.567,0.597-0.873,1.509-0.919,2.734l-0.023,0.804
			l0.023,0.804c0.046,1.226,0.352,2.137,0.919,2.734c0.567,0.597,1.333,0.896,2.298,0.896c0.75,0,1.363-0.157,1.838-0.471
			c0.475-0.314,0.85-0.846,1.126-1.597c0.076-0.184,0.153-0.31,0.23-0.379c0.076-0.069,0.191-0.103,0.345-0.103h1.011
			c0.138,0,0.264,0.054,0.379,0.161s0.164,0.23,0.149,0.368c-0.031,0.567-0.234,1.141-0.609,1.723s-0.942,1.072-1.7,1.47
			c-0.758,0.398-1.689,0.597-2.791,0.597C78.838,18.652,77.559,18.189,76.64,17.262z"/>
		
			<linearGradient id="SVGID_8_" gradientUnits="userSpaceOnUse" x1="2.0644" y1="49.8151" x2="120.1783" y2="49.8151" gradientTransform="matrix(1 0 0 1 0 -37.3661)">
			<stop  offset="0" style="stop-color:#D94C4C"/>
			<stop  offset="0.3" style="stop-color:#F0C256"/>
			<stop  offset="0.5" style="stop-color:#21A661"/>
			<stop  offset="0.7" style="stop-color:#0A9BB8"/>
			<stop  offset="1" style="stop-color:#9542A6"/>
		</linearGradient>
		<path style="&st8;" d="M88.484,18.273c-0.1-0.099-0.149-0.226-0.149-0.379V7.027c0-0.153,0.05-0.283,0.149-0.391
			c0.1-0.107,0.226-0.161,0.379-0.161h0.965c0.168,0,0.302,0.05,0.402,0.149c0.099,0.1,0.149,0.234,0.149,0.402v1.011
			c0.628-1.041,1.692-1.562,3.193-1.562h0.896c0.168,0,0.299,0.046,0.391,0.138c0.092,0.092,0.138,0.222,0.138,0.391v0.85
			c0,0.153-0.046,0.28-0.138,0.379c-0.092,0.1-0.222,0.149-0.391,0.149h-1.31c-0.843,0-1.505,0.245-1.987,0.735
			c-0.483,0.49-0.724,1.157-0.724,1.999v6.778c0,0.153-0.054,0.28-0.161,0.379c-0.107,0.1-0.238,0.149-0.391,0.149h-1.034
			C88.71,18.423,88.583,18.373,88.484,18.273z"/>
		
			<linearGradient id="SVGID_9_" gradientUnits="userSpaceOnUse" x1="2.0644" y1="49.8151" x2="120.1783" y2="49.8151" gradientTransform="matrix(1 0 0 1 0 -37.3661)">
			<stop  offset="0" style="stop-color:#D94C4C"/>
			<stop  offset="0.3" style="stop-color:#F0C256"/>
			<stop  offset="0.5" style="stop-color:#21A661"/>
			<stop  offset="0.7" style="stop-color:#0A9BB8"/>
			<stop  offset="1" style="stop-color:#9542A6"/>
		</linearGradient>
		<path style="&st9;" d="M98.019,18.193c-0.636-0.306-1.141-0.724-1.516-1.252s-0.563-1.114-0.563-1.758
			c0-1.011,0.414-1.838,1.241-2.481c0.827-0.643,1.953-1.072,3.377-1.287l3.446-0.483v-0.666c0-1.577-0.911-2.366-2.734-2.366
			c-0.705,0-1.272,0.142-1.7,0.425c-0.429,0.284-0.743,0.617-0.942,0.999c-0.061,0.153-0.126,0.257-0.195,0.31
			c-0.069,0.054-0.165,0.08-0.287,0.08H97.25c-0.138,0-0.257-0.05-0.356-0.149c-0.1-0.099-0.149-0.218-0.149-0.356
			c0-0.352,0.164-0.762,0.494-1.229c0.329-0.467,0.839-0.873,1.528-1.218s1.532-0.517,2.527-0.517c1.715,0,2.944,0.399,3.687,1.195
			c0.743,0.797,1.114,1.792,1.114,2.987v7.467c0,0.153-0.05,0.28-0.149,0.379c-0.1,0.1-0.226,0.149-0.379,0.149h-1.011
			c-0.153,0-0.276-0.05-0.368-0.149c-0.092-0.099-0.138-0.226-0.138-0.379v-1.011c-0.337,0.505-0.827,0.927-1.47,1.264
			s-1.471,0.505-2.481,0.505C99.347,18.652,98.654,18.499,98.019,18.193z M103.039,15.987c0.643-0.658,0.965-1.616,0.965-2.872
			v-0.643l-2.688,0.391c-1.103,0.153-1.938,0.413-2.504,0.781c-0.567,0.367-0.85,0.827-0.85,1.378c0,0.628,0.256,1.111,0.77,1.447
			c0.513,0.337,1.122,0.505,1.827,0.505C101.568,16.975,102.395,16.646,103.039,15.987z"/>
		
			<linearGradient id="SVGID_10_" gradientUnits="userSpaceOnUse" x1="2.0644" y1="51.8831" x2="120.1783" y2="51.8831" gradientTransform="matrix(1 0 0 1 0 -37.3661)">
			<stop  offset="0" style="stop-color:#D94C4C"/>
			<stop  offset="0.3" style="stop-color:#F0C256"/>
			<stop  offset="0.5" style="stop-color:#21A661"/>
			<stop  offset="0.7" style="stop-color:#0A9BB8"/>
			<stop  offset="1" style="stop-color:#9542A6"/>
		</linearGradient>
		<path style="&st10;" d="M109.598,22.65c-0.1-0.092-0.149-0.222-0.149-0.391V7.004c0-0.168,0.05-0.299,0.149-0.391
			s0.226-0.138,0.379-0.138h0.965c0.168,0,0.299,0.046,0.391,0.138c0.092,0.092,0.138,0.222,0.138,0.391v1.011
			c0.888-1.179,2.152-1.769,3.791-1.769c1.608,0,2.814,0.509,3.619,1.528c0.804,1.019,1.229,2.317,1.275,3.894
			c0.015,0.169,0.023,0.429,0.023,0.781c0,0.353-0.008,0.613-0.023,0.781c-0.046,1.562-0.471,2.857-1.275,3.883
			c-0.804,1.026-2.01,1.539-3.619,1.539c-1.639,0-2.88-0.582-3.722-1.746v5.353c0,0.153-0.05,0.279-0.149,0.379
			c-0.1,0.099-0.226,0.149-0.379,0.149h-1.034C109.824,22.788,109.697,22.742,109.598,22.65z M117.237,15.826
			c0.505-0.689,0.781-1.593,0.827-2.711c0.015-0.153,0.023-0.375,0.023-0.666c0-2.941-1.088-4.411-3.262-4.411
			c-1.072,0-1.88,0.356-2.424,1.068c-0.544,0.712-0.831,1.551-0.862,2.516c-0.015,0.169-0.023,0.467-0.023,0.896
			s0.008,0.728,0.023,0.896c0.031,0.934,0.325,1.742,0.885,2.424c0.559,0.682,1.359,1.022,2.401,1.022
			C115.927,16.86,116.732,16.516,117.237,15.826z"/>
	</g>
	<g>
		<path style="&st11;" d="M2.202,18.273c-0.092-0.099-0.138-0.225-0.138-0.379V2.891c0-0.168,0.046-0.302,0.138-0.402
			C2.294,2.39,2.416,2.34,2.569,2.34h5.813c1.731,0,3.09,0.417,4.078,1.252c0.988,0.835,1.482,2.049,1.482,3.642
			s-0.494,2.803-1.482,3.63c-0.988,0.827-2.347,1.24-4.078,1.24H4.247v5.79c0,0.153-0.05,0.28-0.149,0.379
			c-0.1,0.1-0.226,0.149-0.379,0.149h-1.15C2.416,18.423,2.294,18.373,2.202,18.273z M8.267,10.243c2.313,0,3.469-1.003,3.469-3.01
			c0-0.98-0.287-1.731-0.862-2.252c-0.573-0.519-1.443-0.78-2.607-0.78h-4.02v6.043h4.02V10.243z"/>
		<path style="&st11;" d="M17.492,18.193c-0.636-0.306-1.141-0.724-1.516-1.252s-0.563-1.114-0.563-1.758
			c0-1.011,0.414-1.838,1.241-2.481s1.953-1.072,3.377-1.287l3.446-0.483v-0.666c0-1.577-0.911-2.366-2.734-2.366
			c-0.705,0-1.272,0.142-1.7,0.425c-0.429,0.284-0.743,0.617-0.942,0.999c-0.061,0.153-0.126,0.257-0.195,0.31
			c-0.069,0.054-0.165,0.08-0.287,0.08h-0.896c-0.138,0-0.257-0.05-0.356-0.149c-0.1-0.099-0.149-0.218-0.149-0.356
			c0-0.352,0.164-0.762,0.494-1.229c0.329-0.467,0.839-0.873,1.528-1.218s1.531-0.517,2.527-0.517c1.715,0,2.944,0.399,3.688,1.195
			c0.743,0.797,1.114,1.792,1.114,2.987v7.467c0,0.153-0.05,0.28-0.149,0.379c-0.1,0.1-0.226,0.149-0.379,0.149H24.03
			c-0.153,0-0.276-0.05-0.368-0.149c-0.092-0.099-0.138-0.226-0.138-0.379v-1.011c-0.337,0.505-0.827,0.927-1.47,1.264
			s-1.47,0.505-2.481,0.505C18.82,18.652,18.127,18.499,17.492,18.193z M22.512,15.987c0.643-0.658,0.965-1.616,0.965-2.872v-0.643
			l-2.688,0.391c-1.103,0.153-1.938,0.413-2.504,0.781c-0.567,0.367-0.85,0.827-0.85,1.378c0,0.628,0.256,1.111,0.77,1.447
			c0.513,0.337,1.122,0.505,1.827,0.505C21.041,16.975,21.869,16.646,22.512,15.987z"/>
		<path style="&st11;" d="M29.071,22.65c-0.1-0.092-0.149-0.222-0.149-0.391V7.004c0-0.168,0.05-0.299,0.149-0.391
			s0.226-0.138,0.379-0.138h0.965c0.168,0,0.299,0.046,0.391,0.138c0.092,0.092,0.138,0.222,0.138,0.391v1.011
			c0.888-1.179,2.152-1.769,3.791-1.769c1.608,0,2.814,0.509,3.619,1.528c0.804,1.019,1.229,2.317,1.275,3.894
			c0.015,0.169,0.023,0.429,0.023,0.781c0,0.353-0.008,0.613-0.023,0.781c-0.046,1.562-0.471,2.857-1.275,3.883
			c-0.804,1.026-2.01,1.539-3.619,1.539c-1.639,0-2.88-0.582-3.722-1.746v5.353c0,0.153-0.05,0.279-0.149,0.379
			c-0.1,0.099-0.226,0.149-0.379,0.149h-1.034C29.297,22.788,29.17,22.742,29.071,22.65z M36.71,15.826
			c0.505-0.689,0.781-1.593,0.827-2.711c0.015-0.153,0.023-0.375,0.023-0.666c0-2.941-1.088-4.411-3.262-4.411
			c-1.072,0-1.88,0.356-2.424,1.068c-0.544,0.712-0.831,1.551-0.862,2.516c-0.015,0.169-0.023,0.467-0.023,0.896
			s0.008,0.728,0.023,0.896c0.03,0.934,0.325,1.742,0.885,2.424c0.559,0.682,1.359,1.022,2.401,1.022
			C35.401,16.86,36.205,16.516,36.71,15.826z"/>
		<path style="&st11;" d="M43.534,17.193c-0.934-0.973-1.447-2.301-1.539-3.986l-0.023-0.781l0.023-0.758
			c0.092-1.654,0.605-2.971,1.539-3.952c0.934-0.98,2.183-1.47,3.745-1.47c1.685,0,2.99,0.536,3.917,1.608s1.39,2.527,1.39,4.365
			v0.414c0,0.153-0.05,0.28-0.149,0.379c-0.1,0.1-0.226,0.149-0.379,0.149h-7.972v0.207c0.046,0.996,0.352,1.846,0.919,2.55
			c0.566,0.705,1.317,1.057,2.252,1.057c0.72,0,1.306-0.141,1.758-0.425c0.452-0.283,0.793-0.578,1.022-0.885
			c0.138-0.184,0.245-0.295,0.322-0.333c0.076-0.038,0.207-0.057,0.391-0.057h1.011c0.138,0,0.256,0.038,0.356,0.115
			c0.099,0.077,0.149,0.176,0.149,0.299c0,0.337-0.207,0.743-0.62,1.218c-0.414,0.475-0.999,0.885-1.758,1.229
			c-0.758,0.345-1.628,0.517-2.608,0.517C45.716,18.652,44.468,18.166,43.534,17.193z M50.495,11.599V11.53
			c0-1.072-0.291-1.945-0.873-2.619S48.259,7.9,47.279,7.9c-0.996,0-1.777,0.337-2.343,1.011c-0.567,0.674-0.85,1.547-0.85,2.619
			v0.069H50.495z"/>
		<path style="&st11;" d="M55.538,18.273c-0.1-0.099-0.149-0.226-0.149-0.379V7.027c0-0.153,0.05-0.283,0.149-0.391
			c0.099-0.107,0.226-0.161,0.379-0.161h0.965c0.168,0,0.302,0.05,0.402,0.149c0.099,0.1,0.149,0.234,0.149,0.402v1.011
			c0.628-1.041,1.692-1.562,3.194-1.562h0.896c0.168,0,0.299,0.046,0.39,0.138c0.092,0.092,0.138,0.222,0.138,0.391v0.85
			c0,0.153-0.046,0.28-0.138,0.379c-0.092,0.1-0.222,0.149-0.39,0.149h-1.31c-0.843,0-1.505,0.245-1.987,0.735
			c-0.483,0.49-0.724,1.157-0.724,1.999v6.778c0,0.153-0.054,0.28-0.161,0.379c-0.107,0.1-0.238,0.149-0.391,0.149h-1.034
			C55.764,18.423,55.638,18.373,55.538,18.273z"/>
		<path style="&st11;" d="M65.44,18.135c-0.728-0.345-1.268-0.739-1.62-1.183c-0.353-0.444-0.528-0.812-0.528-1.103
			c0-0.153,0.053-0.272,0.161-0.356c0.107-0.084,0.222-0.126,0.345-0.126h0.965c0.092,0,0.164,0.015,0.218,0.046
			c0.053,0.031,0.126,0.1,0.218,0.207c0.352,0.429,0.747,0.766,1.183,1.011c0.437,0.245,1.022,0.368,1.758,0.368
			c0.827,0,1.489-0.153,1.987-0.459s0.747-0.75,0.747-1.333c0-0.383-0.107-0.689-0.322-0.919s-0.571-0.436-1.068-0.62
			c-0.498-0.184-1.237-0.383-2.217-0.597c-1.333-0.291-2.274-0.712-2.826-1.264c-0.551-0.551-0.827-1.264-0.827-2.137
			c0-0.566,0.168-1.114,0.505-1.643c0.337-0.528,0.839-0.957,1.505-1.287c0.666-0.329,1.459-0.494,2.378-0.494
			c0.965,0,1.788,0.161,2.47,0.483c0.681,0.322,1.195,0.697,1.539,1.126c0.345,0.429,0.517,0.789,0.517,1.08
			c0,0.138-0.05,0.253-0.149,0.345c-0.1,0.092-0.218,0.138-0.356,0.138H71.15c-0.215,0-0.368-0.084-0.46-0.253
			c-0.261-0.291-0.479-0.517-0.655-0.678c-0.176-0.161-0.433-0.299-0.77-0.414c-0.337-0.115-0.758-0.172-1.264-0.172
			c-0.751,0-1.325,0.157-1.723,0.471s-0.597,0.732-0.597,1.252c0,0.322,0.084,0.594,0.253,0.816c0.168,0.222,0.49,0.429,0.965,0.62
			c0.475,0.192,1.179,0.387,2.114,0.586c1.455,0.307,2.485,0.743,3.09,1.31c0.605,0.567,0.908,1.294,0.908,2.183
			c0,0.659-0.188,1.256-0.563,1.792s-0.934,0.957-1.677,1.264c-0.743,0.306-1.628,0.46-2.654,0.46
			C67.06,18.652,66.167,18.48,65.44,18.135z"/>
		<path style="&st11;" d="M76.64,17.262c-0.919-0.926-1.401-2.225-1.447-3.894l-0.023-0.919l0.023-0.919
			c0.046-1.669,0.528-2.967,1.447-3.894s2.198-1.39,3.837-1.39c1.103,0,2.033,0.195,2.791,0.586s1.325,0.877,1.7,1.459
			s0.578,1.164,0.609,1.746c0.015,0.138-0.034,0.261-0.149,0.368c-0.115,0.107-0.241,0.161-0.379,0.161h-1.011
			c-0.153,0-0.268-0.034-0.345-0.103c-0.077-0.069-0.153-0.195-0.23-0.379c-0.276-0.75-0.655-1.283-1.137-1.597
			c-0.483-0.314-1.091-0.471-1.827-0.471c-0.965,0-1.731,0.299-2.298,0.896c-0.567,0.597-0.873,1.509-0.919,2.734l-0.023,0.804
			l0.023,0.804c0.046,1.226,0.352,2.137,0.919,2.734c0.567,0.597,1.333,0.896,2.298,0.896c0.75,0,1.363-0.157,1.838-0.471
			c0.475-0.314,0.85-0.846,1.126-1.597c0.076-0.184,0.153-0.31,0.23-0.379c0.076-0.069,0.191-0.103,0.345-0.103h1.011
			c0.138,0,0.264,0.054,0.379,0.161s0.164,0.23,0.149,0.368c-0.031,0.567-0.234,1.141-0.609,1.723s-0.942,1.072-1.7,1.47
			c-0.758,0.398-1.689,0.597-2.791,0.597C78.838,18.652,77.559,18.189,76.64,17.262z"/>
		<path style="&st11;" d="M88.484,18.273c-0.1-0.099-0.149-0.226-0.149-0.379V7.027c0-0.153,0.05-0.283,0.149-0.391
			c0.1-0.107,0.226-0.161,0.379-0.161h0.965c0.168,0,0.302,0.05,0.402,0.149c0.099,0.1,0.149,0.234,0.149,0.402v1.011
			c0.628-1.041,1.692-1.562,3.193-1.562h0.896c0.168,0,0.299,0.046,0.391,0.138c0.092,0.092,0.138,0.222,0.138,0.391v0.85
			c0,0.153-0.046,0.28-0.138,0.379c-0.092,0.1-0.222,0.149-0.391,0.149h-1.31c-0.843,0-1.505,0.245-1.987,0.735
			c-0.483,0.49-0.724,1.157-0.724,1.999v6.778c0,0.153-0.054,0.28-0.161,0.379c-0.107,0.1-0.238,0.149-0.391,0.149h-1.034
			C88.71,18.423,88.583,18.373,88.484,18.273z"/>
		<path style="&st11;" d="M98.019,18.193c-0.636-0.306-1.141-0.724-1.516-1.252s-0.563-1.114-0.563-1.758
			c0-1.011,0.414-1.838,1.241-2.481c0.827-0.643,1.953-1.072,3.377-1.287l3.446-0.483v-0.666c0-1.577-0.911-2.366-2.734-2.366
			c-0.705,0-1.272,0.142-1.7,0.425c-0.429,0.284-0.743,0.617-0.942,0.999c-0.061,0.153-0.126,0.257-0.195,0.31
			c-0.069,0.054-0.165,0.08-0.287,0.08H97.25c-0.138,0-0.257-0.05-0.356-0.149c-0.1-0.099-0.149-0.218-0.149-0.356
			c0-0.352,0.164-0.762,0.494-1.229c0.329-0.467,0.839-0.873,1.528-1.218s1.532-0.517,2.527-0.517c1.715,0,2.944,0.399,3.687,1.195
			c0.743,0.797,1.114,1.792,1.114,2.987v7.467c0,0.153-0.05,0.28-0.149,0.379c-0.1,0.1-0.226,0.149-0.379,0.149h-1.011
			c-0.153,0-0.276-0.05-0.368-0.149c-0.092-0.099-0.138-0.226-0.138-0.379v-1.011c-0.337,0.505-0.827,0.927-1.47,1.264
			s-1.471,0.505-2.481,0.505C99.347,18.652,98.654,18.499,98.019,18.193z M103.039,15.987c0.643-0.658,0.965-1.616,0.965-2.872
			v-0.643l-2.688,0.391c-1.103,0.153-1.938,0.413-2.504,0.781c-0.567,0.367-0.85,0.827-0.85,1.378c0,0.628,0.256,1.111,0.77,1.447
			c0.513,0.337,1.122,0.505,1.827,0.505C101.568,16.975,102.395,16.646,103.039,15.987z"/>
		<path style="&st11;" d="M109.598,22.65c-0.1-0.092-0.149-0.222-0.149-0.391V7.004c0-0.168,0.05-0.299,0.149-0.391
			s0.226-0.138,0.379-0.138h0.965c0.168,0,0.299,0.046,0.391,0.138c0.092,0.092,0.138,0.222,0.138,0.391v1.011
			c0.888-1.179,2.152-1.769,3.791-1.769c1.608,0,2.814,0.509,3.619,1.528c0.804,1.019,1.229,2.317,1.275,3.894
			c0.015,0.169,0.023,0.429,0.023,0.781c0,0.353-0.008,0.613-0.023,0.781c-0.046,1.562-0.471,2.857-1.275,3.883
			c-0.804,1.026-2.01,1.539-3.619,1.539c-1.639,0-2.88-0.582-3.722-1.746v5.353c0,0.153-0.05,0.279-0.149,0.379
			c-0.1,0.099-0.226,0.149-0.379,0.149h-1.034C109.824,22.788,109.697,22.742,109.598,22.65z M117.237,15.826
			c0.505-0.689,0.781-1.593,0.827-2.711c0.015-0.153,0.023-0.375,0.023-0.666c0-2.941-1.088-4.411-3.262-4.411
			c-1.072,0-1.88,0.356-2.424,1.068c-0.544,0.712-0.831,1.551-0.862,2.516c-0.015,0.169-0.023,0.467-0.023,0.896
			s0.008,0.728,0.023,0.896c0.031,0.934,0.325,1.742,0.885,2.424c0.559,0.682,1.359,1.022,2.401,1.022
			C115.927,16.86,116.732,16.516,117.237,15.826z"/>
	</g>
</g>
</svg>
